<mxfile>
    <diagram id="gdLkVAoInEApZWIUcxZC" name="Page-1">
        <mxGraphModel dx="1096" dy="611" grid="1" gridSize="10" guides="1" tooltips="1" connect="1" arrows="1" fold="1" page="1" pageScale="1" pageWidth="850" pageHeight="1100" math="0" shadow="0">
            <root>
                <mxCell id="0"/>
                <mxCell id="1" parent="0"/>
                <mxCell id="hQokCKCYotDzluKHrfTL-1" value="Private Server A&lt;br&gt;(Docker)" style="rounded=0;whiteSpace=wrap;html=1;" parent="1" vertex="1">
                    <mxGeometry x="160" y="160" width="120" height="80" as="geometry"/>
                </mxCell>
                <mxCell id="hQokCKCYotDzluKHrfTL-2" value="Private Server B&lt;br&gt;(Docker)" style="rounded=0;whiteSpace=wrap;html=1;" vertex="1" parent="1">
                    <mxGeometry x="520" y="160" width="120" height="80" as="geometry"/>
                </mxCell>
            </root>
        </mxGraphModel>
    </diagram>
</mxfile>